<svg width="24" height="24" viewBox="0 0 24 24" fill="none" stroke="currentColor" xmlns="http://www.w3.org/2000/svg">
<path fill-rule="evenodd" clip-rule="evenodd" fill="none" stroke="currentColor" d="M8 4C7.44772 4 7 4.44772 7 5V7C7 7.55228 7.44772 8 8 8H10C10.5523 8 11 7.55228 11 7V5C11 4.44772 10.5523 4 10 4H8ZM8 10C7.44772 10 7 10.4477 7 11V13C7 13.5523 7.44772 14 8 14H10C10.5523 14 11 13.5523 11 13V11C11 10.4477 10.5523 10 10 10H8ZM7 17C7 16.4477 7.44772 16 8 16H10C10.5523 16 11 16.4477 11 17V19C11 19.5523 10.5523 20 10 20H8C7.44772 20 7 19.5523 7 19V17ZM14 4C13.4477 4 13 4.44772 13 5V7C13 7.55228 13.4477 8 14 8H16C16.5523 8 17 7.55228 17 7V5C17 4.44772 16.5523 4 16 4H14ZM13 11C13 10.4477 13.4477 10 14 10H16C16.5523 10 17 10.4477 17 11V13C17 13.5523 16.5523 14 16 14H14C13.4477 14 13 13.5523 13 13V11ZM14 16C13.4477 16 13 16.4477 13 17V19C13 19.5523 13.4477 20 14 20H16C16.5523 20 17 19.5523 17 19V17C17 16.4477 16.5523 16 16 16H14Z"/>
</svg>
